<svg width="17" height="17" viewBox="0 0 17 17" fill="none" xmlns="http://www.w3.org/2000/svg">
<path d="M0.5 14.5C0.5 13.4391 0.921427 12.4217 1.67157 11.6716C2.42172 10.9214 3.43913 10.5 4.5 10.5H12.5C13.5609 10.5 14.5783 10.9214 15.3284 11.6716C16.0786 12.4217 16.5 13.4391 16.5 14.5C16.5 15.0304 16.2893 15.5391 15.9142 15.9142C15.5391 16.2893 15.0304 16.5 14.5 16.5H2.5C1.96957 16.5 1.46086 16.2893 1.08579 15.9142C0.710714 15.5391 0.5 15.0304 0.5 14.5Z" stroke="black" stroke-linejoin="round"/>
<path d="M8.5 6.5C10.1569 6.5 11.5 5.15685 11.5 3.5C11.5 1.84315 10.1569 0.5 8.5 0.5C6.84315 0.5 5.5 1.84315 5.5 3.5C5.5 5.15685 6.84315 6.5 8.5 6.5Z" stroke="black"/>
</svg>
