<svg width="21" height="18" viewBox="0 0 21 18" fill="none" xmlns="http://www.w3.org/2000/svg">
<path d="M0.75 0C0.551088 0 0.360322 0.0790175 0.21967 0.21967C0.0790177 0.360322 0 0.551088 0 0.75C0 0.948912 0.0790177 1.13968 0.21967 1.28033C0.360322 1.42098 0.551088 1.5 0.75 1.5H1.931C2.11194 1.49994 2.2868 1.56529 2.42334 1.68401C2.55989 1.80273 2.64891 1.96681 2.674 2.146L3.928 11.063C4.00347 11.6002 4.27049 12.0921 4.67989 12.448C5.08929 12.8039 5.61351 13 6.156 13H16.5C16.6989 13 16.8897 12.921 17.0303 12.7803C17.171 12.6397 17.25 12.4489 17.25 12.25C17.25 12.0511 17.171 11.8603 17.0303 11.7197C16.8897 11.579 16.6989 11.5 16.5 11.5H6.156C5.97506 11.5001 5.8002 11.4347 5.66366 11.316C5.52711 11.1973 5.43809 11.0332 5.413 10.854L5.293 10.001H16.145C16.6254 10.0012 17.0933 9.84771 17.4802 9.56286C17.867 9.27802 18.1526 8.87683 18.295 8.418L20.216 2.23C20.2508 2.1178 20.2587 1.99901 20.2392 1.88319C20.2196 1.76737 20.1731 1.65776 20.1035 1.56319C20.0338 1.46861 19.9429 1.39173 19.8381 1.33872C19.7333 1.28571 19.6175 1.25806 19.5 1.258H3.95C3.7647 0.880761 3.47744 0.562964 3.12077 0.340622C2.76411 0.118281 2.35229 0.000282821 1.932 0H0.75ZM4.275 2.758H18.482L16.862 7.973C16.8144 8.12587 16.7191 8.2595 16.5901 8.35432C16.4611 8.44915 16.3051 8.5002 16.145 8.5H5.082L4.275 2.758ZM6.218 14.5C5.75387 14.5 5.30875 14.6844 4.98056 15.0126C4.65237 15.3408 4.468 15.7859 4.468 16.25C4.468 16.7141 4.65237 17.1592 4.98056 17.4874C5.30875 17.8156 5.75387 18 6.218 18C6.68213 18 7.12725 17.8156 7.45544 17.4874C7.78363 17.1592 7.968 16.7141 7.968 16.25C7.968 15.7859 7.78363 15.3408 7.45544 15.0126C7.12725 14.6844 6.68213 14.5 6.218 14.5ZM13.004 16.25C13.004 15.7859 13.1884 15.3408 13.5166 15.0126C13.8448 14.6844 14.2899 14.5 14.754 14.5C15.2181 14.5 15.6632 14.6844 15.9914 15.0126C16.3196 15.3408 16.504 15.7859 16.504 16.25C16.504 16.7141 16.3196 17.1592 15.9914 17.4874C15.6632 17.8156 15.2181 18 14.754 18C14.2899 18 13.8448 17.8156 13.5166 17.4874C13.1884 17.1592 13.004 16.7141 13.004 16.25Z" fill="black"/>
</svg>
