<svg width="32" height="44" viewBox="0 0 32 44" fill="none" xmlns="http://www.w3.org/2000/svg">
<path fill-rule="evenodd" clip-rule="evenodd" d="M20 0C21.0609 0 22.0783 0.421351 22.8284 1.17136C23.5786 1.92137 24 2.9386 24 3.99928C24.001 5.38125 24.4786 6.72061 25.3523 7.79153C26.2259 8.86245 27.4422 9.59943 28.796 9.87822C29.8356 10.0893 30.7488 10.7046 31.3347 11.5889C31.9206 12.4732 32.1311 13.5539 31.92 14.5934C31.7089 15.6328 31.0934 16.5459 30.209 17.1316C29.3246 17.7174 28.2436 17.9279 27.204 17.7168C26.0967 17.4908 25.0209 17.1316 24 16.647V27.9949C23.9999 30.239 23.3703 32.4381 22.1828 34.3423C20.9953 36.2465 19.2974 37.7796 17.2821 38.7674C15.2667 39.7552 13.0147 40.1581 10.7819 39.9303C8.54898 39.7025 6.42476 38.8531 4.6505 37.4787C2.87624 36.1043 1.52307 34.26 0.744705 32.1552C-0.0336624 30.0504 -0.206022 27.7695 0.247206 25.5717C0.700433 23.3738 1.76108 21.3471 3.30866 19.7218C4.85623 18.0965 6.8287 16.9377 9.002 16.377C10.0228 16.1309 11.0995 16.296 11.9997 16.8367C12.8998 17.3773 13.5512 18.2502 13.8132 19.2669C14.0753 20.2836 13.9269 21.3626 13.4002 22.2708C12.8735 23.1791 12.0107 23.8439 10.998 24.1216C10.0603 24.3704 9.24491 24.951 8.70323 25.7557C8.16155 26.5603 7.93046 27.5342 8.05293 28.4964C8.17539 29.4585 8.64306 30.3435 9.36904 30.9869C10.095 31.6302 11.0299 31.9882 12 31.9942C13.0609 31.9942 14.0783 31.5729 14.8284 30.8229C15.5786 30.0729 16 29.0556 16 27.9949V3.99928C16 2.9386 16.4214 1.92137 17.1716 1.17136C17.9217 0.421351 18.9391 0 20 0Z" fill="black"/>
</svg>
