<svg width="15" height="15" viewBox="0 0 15 15" fill="none" xmlns="http://www.w3.org/2000/svg">
<path d="M7.94319 0L7.0605 1.35822C5.92138 0.436844 4.31225 0.151219 3.06175 0.407344C1.35997 0.755781 -0.0684329 2.29319 0.00253582 4.51547C0.0773483 6.85781 1.71222 8.56891 3.28035 9.97869C4.06441 10.6835 4.8691 11.3251 5.4656 11.9017C6.64325 12.9661 7.21379 14.7881 7.21379 14.7881C7.21379 14.7881 7.98047 12.9287 8.96197 11.989C9.57735 11.4046 10.3893 10.7512 11.1908 10.0224C12.7939 8.56478 14.4535 6.77134 14.3813 4.47184C14.3813 0.649719 10.5938 0.690188 9.13494 2.01888C9.73879 1.69931 10.3887 1.63147 10.9724 1.76219C12.0442 2.00228 12.9315 2.88516 12.9828 4.51556C13.0316 6.07556 11.7612 7.58081 10.2293 8.9735C9.46344 9.66975 8.67457 10.2999 8.00044 10.9401C7.64244 11.2802 7.47732 11.5811 7.21375 11.9337C6.9501 11.5592 6.78679 11.2441 6.4271 10.8964C4.6976 8.929 1.94975 6.80634 1.83994 4.47181C1.81744 2.52744 4.09316 2.01544 5.31638 2.87681L3.88125 3.66613C5.98729 4.01438 7.77957 4.83363 9.68116 6.02825L7.94316 0H7.94319Z" fill="black"/>
</svg>
